<?xml version="1.0" encoding="utf-8"?>
<!-- Generator: Adobe Illustrator 17.1.0, SVG Export Plug-In . SVG Version: 6.00 Build 0)  -->
<!DOCTYPE svg PUBLIC "-//W3C//DTD SVG 1.1//EN" "http://www.w3.org/Graphics/SVG/1.1/DTD/svg11.dtd">
<svg version="1.1" id="Layer_1" xmlns="http://www.w3.org/2000/svg" xmlns:xlink="http://www.w3.org/1999/xlink" x="0px" y="0px"
	 viewBox="0 0 23.3 15.4" enable-background="new 0 0 23.3 15.4" xml:space="preserve">
<g>
	<defs>
		<rect id="SVGID_1_" x="0" width="23.3" height="15.4"/>
	</defs>
	<clipPath id="SVGID_2_">
		<use xlink:href="#SVGID_1_"  overflow="visible"/>
	</clipPath>
	<g clip-path="url(#SVGID_2_)">
		<rect x="-0.1" y="-0.2" fill="#EB2227" width="23.6" height="15.8"/>
		<rect x="-0.1" y="-0.2" fill="#EB2227" stroke="#231F20" stroke-width="0.1" width="23.6" height="15.8"/>
		<polygon fill="#FCEE21" points="3.7,4.6 5.1,5.6 4.6,3.9 6,2.8 4.2,2.8 3.7,1.1 3.1,2.8 1.3,2.8 2.8,3.9 2.2,5.6 		"/>
		<polygon fill="#FCEE21" points="7.9,1.4 8.6,1.2 8,1 8,0.3 7.6,0.8 6.9,0.6 7.3,1.1 6.9,1.7 7.5,1.5 7.9,2.1 		"/>
		<polygon fill="#FCEE21" points="7.9,7.1 8.6,6.9 8,6.7 8,6 7.6,6.5 6.9,6.3 7.3,6.8 6.9,7.4 7.5,7.2 7.9,7.8 		"/>
		<polygon fill="#FCEE21" points="9.5,3.2 10.2,3.3 9.7,2.8 10,2.2 9.4,2.5 8.9,2 9,2.7 8.4,3 9.1,3.1 9.2,3.8 		"/>
		<polygon fill="#FCEE21" points="9.3,5.6 9.9,6 9.6,5.4 10.2,4.9 9.5,5 9.3,4.3 9.1,5 8.4,5 9,5.4 8.8,6.1 		"/>
	</g>
</g>
</svg>
