<?xml version="1.0" encoding="utf-8"?>
<!-- Generator: Adobe Illustrator 17.1.0, SVG Export Plug-In . SVG Version: 6.00 Build 0)  -->
<!DOCTYPE svg PUBLIC "-//W3C//DTD SVG 1.1//EN" "http://www.w3.org/Graphics/SVG/1.1/DTD/svg11.dtd">
<svg version="1.1" id="Layer_1" xmlns="http://www.w3.org/2000/svg" xmlns:xlink="http://www.w3.org/1999/xlink" x="0px" y="0px"
	 viewBox="0 0 23.3 15.4" enable-background="new 0 0 23.3 15.4" xml:space="preserve">
<g>
	<defs>
		<rect id="SVGID_1_" x="0" y="0" width="23.3" height="15.4"/>
	</defs>
	<clipPath id="SVGID_2_">
		<use xlink:href="#SVGID_1_"  overflow="visible"/>
	</clipPath>
	<g clip-path="url(#SVGID_2_)">
		<rect x="-0.1" y="-0.2" fill="#303387" width="23.6" height="15.8"/>
		<polygon fill="#FFFFFF" points="-0.1,-0.2 2.8,-0.2 9,3.9 9,-0.2 14.3,-0.2 14.3,3.9 20.5,-0.2 23.4,-0.2 23.4,-0.2 23.4,1.8 
			18.6,5 23.4,5 23.4,10.3 18.6,10.3 23.4,13.6 23.4,15.6 20.5,15.6 14.3,11.4 14.3,15.6 9,15.6 9,11.4 2.8,15.6 -0.1,15.6 
			-0.1,13.6 4.7,10.3 -0.1,10.3 -0.1,5 4.7,5 -0.1,1.8 		"/>
		<polygon fill="#EB2227" points="9,10.7 9,10.3 7.7,10.3 -0.1,15.6 1.7,15.6 		"/>
		<polygon fill="#EB2227" points="14.3,4.7 14.3,5 15.6,5 23.4,-0.2 21.6,-0.2 		"/>
		<polygon fill="#EB2227" points="-0.1,1 5.8,5 7.7,5 -0.1,-0.2 -0.1,-0.2 		"/>
		<polygon fill="#EB2227" points="15.6,10.3 23.4,15.6 23.4,14.3 17.5,10.3 		"/>
		<polygon fill="#EB2227" points="13.2,6.1 13.2,-0.2 10.1,-0.2 10.1,6.1 -0.1,6.1 -0.1,9.3 10.1,9.3 10.1,15.6 13.2,15.6 13.2,9.3 
			23.4,9.3 23.4,6.1 		"/>
		<rect x="-0.1" y="-0.2" fill="none" stroke="#231F20" stroke-width="0.1" width="23.6" height="15.8"/>
	</g>
</g>
</svg>
